<svg width="40" height="38" viewBox="0 0 40 38" fill="none" xmlns="http://www.w3.org/2000/svg">
<path d="M5 18C3.6 18 2.41667 17.5167 1.45 16.55C0.483333 15.5833 0 14.4 0 13C0 11.6 0.483333 10.4167 1.45 9.45C2.41667 8.48333 3.6 8 5 8C6.4 8 7.58333 8.48333 8.55 9.45C9.51667 10.4167 10 11.6 10 13C10 14.4 9.51667 15.5833 8.55 16.55C7.58333 17.5167 6.4 18 5 18ZM14 10C12.6 10 11.4167 9.51667 10.45 8.55C9.48333 7.58333 9 6.4 9 5C9 3.6 9.48333 2.41667 10.45 1.45C11.4167 0.483333 12.6 0 14 0C15.4 0 16.5833 0.483333 17.55 1.45C18.5167 2.41667 19 3.6 19 5C19 6.4 18.5167 7.58333 17.55 8.55C16.5833 9.51667 15.4 10 14 10ZM26 10C24.6 10 23.4167 9.51667 22.45 8.55C21.4833 7.58333 21 6.4 21 5C21 3.6 21.4833 2.41667 22.45 1.45C23.4167 0.483333 24.6 0 26 0C27.4 0 28.5833 0.483333 29.55 1.45C30.5167 2.41667 31 3.6 31 5C31 6.4 30.5167 7.58333 29.55 8.55C28.5833 9.51667 27.4 10 26 10ZM35 18C33.6 18 32.4167 17.5167 31.45 16.55C30.4833 15.5833 30 14.4 30 13C30 11.6 30.4833 10.4167 31.45 9.45C32.4167 8.48333 33.6 8 35 8C36.4 8 37.5833 8.48333 38.55 9.45C39.5167 10.4167 40 11.6 40 13C40 14.4 39.5167 15.5833 38.55 16.55C37.5833 17.5167 36.4 18 35 18ZM9.3 38C7.8 38 6.54167 37.425 5.525 36.275C4.50833 35.125 4 33.7667 4 32.2C4 30.4667 4.59167 28.95 5.775 27.65C6.95833 26.35 8.13333 25.0667 9.3 23.8C10.2667 22.7667 11.1 21.6417 11.8 20.425C12.5 19.2083 13.3333 18.0667 14.3 17C15.0333 16.1333 15.8833 15.4167 16.85 14.85C17.8167 14.2833 18.8667 14 20 14C21.1333 14 22.1833 14.2667 23.15 14.8C24.1167 15.3333 24.9667 16.0333 25.7 16.9C26.6333 17.9667 27.4583 19.1167 28.175 20.35C28.8917 21.5833 29.7333 22.7333 30.7 23.8C31.8667 25.0667 33.0417 26.35 34.225 27.65C35.4083 28.95 36 30.4667 36 32.2C36 33.7667 35.4917 35.125 34.475 36.275C33.4583 37.425 32.2 38 30.7 38C28.9 38 27.1167 37.85 25.35 37.55C23.5833 37.25 21.8 37.1 20 37.1C18.2 37.1 16.4167 37.25 14.65 37.55C12.8833 37.85 11.1 38 9.3 38Z" fill="#003802"/>
</svg>
