<svg width="30" height="29" viewBox="0 0 30 29" fill="none" xmlns="http://www.w3.org/2000/svg">
<path d="M7.40499 28.1406C6.28153 28.1995 5.15616 27.9831 4.02888 27.4914C2.90161 26.9997 1.97738 26.3221 1.2562 25.4587C1.90531 25.4247 2.55349 25.1341 3.20074 24.587C3.848 24.0399 4.14611 23.2795 4.09508 22.3058C4.02966 21.0575 4.41096 19.9736 5.23896 19.054C6.06697 18.1344 7.10512 17.6419 8.35341 17.5765C9.60169 17.511 10.6856 17.8923 11.6052 18.7203C12.5248 19.5484 13.0173 20.5865 13.0828 21.8348C13.1691 23.4825 12.6563 24.9238 11.5444 26.1587C10.4325 27.3936 9.05273 28.0542 7.40499 28.1406ZM7.24798 25.1447C8.07185 25.1015 8.76176 24.7712 9.31771 24.1538C9.87365 23.5363 10.13 22.8157 10.0869 21.9918C10.0646 21.5674 9.90242 21.2191 9.60027 20.9471C9.29812 20.675 8.93483 20.5501 8.51041 20.5724C8.086 20.5946 7.73776 20.7568 7.4657 21.0589C7.19364 21.3611 7.06873 21.7244 7.09097 22.1488C7.12107 22.723 7.07989 23.2509 6.96743 23.7324C6.85498 24.214 6.69753 24.6729 6.49508 25.109C6.62253 25.1524 6.74867 25.1709 6.87349 25.1643C6.99832 25.1578 7.12315 25.1512 7.24798 25.1447ZM15.5471 18.7015L11.2119 14.7981L23.9159 0.688832C24.1761 0.399817 24.5119 0.238273 24.9232 0.204202C25.3345 0.170131 25.6977 0.295039 26.013 0.578927L28.1412 2.49517C28.4565 2.77906 28.6246 3.12073 28.6456 3.52018C28.6665 3.91963 28.535 4.27701 28.2511 4.5923L15.5471 18.7015Z" fill="#FFEFF3"/>
</svg>
