<svg width="29" height="27" viewBox="0 0 29 27" fill="none" xmlns="http://www.w3.org/2000/svg">
<path d="M6 26.982C4.875 26.982 3.7625 26.707 2.6625 26.157C1.5625 25.607 0.675 24.882 0 23.982C0.65 23.982 1.3125 23.7257 1.9875 23.2132C2.6625 22.7007 3 21.957 3 20.982C3 19.732 3.4375 18.6695 4.3125 17.7945C5.1875 16.9195 6.25 16.482 7.5 16.482C8.75 16.482 9.8125 16.9195 10.6875 17.7945C11.5625 18.6695 12 19.732 12 20.982C12 22.632 11.4125 24.0445 10.2375 25.2195C9.0625 26.3945 7.65 26.982 6 26.982ZM14.625 17.982L10.5 13.857L23.925 0.432C24.2 0.157 24.5437 0.01325 24.9562 0.00075C25.3687 -0.01175 25.725 0.132 26.025 0.432L28.05 2.457C28.35 2.757 28.5 3.107 28.5 3.507C28.5 3.907 28.35 4.257 28.05 4.557L14.625 17.982Z" fill="#453900"/>
</svg>
