<svg width="35" height="50" viewBox="0 0 35 50" fill="none" xmlns="http://www.w3.org/2000/svg">
<path d="M11.25 50C8.125 50 5.46875 48.9062 3.28125 46.7188C1.09375 44.5312 0 41.875 0 38.75C0 37.2917 0.354167 35.9479 1.0625 34.7188C1.77083 33.4896 3.08333 31.9167 5 30C5.25 29.75 5.48958 29.4896 5.71875 29.2188C5.94792 28.9479 6.25 28.5833 6.625 28.125C4.5 24.875 2.86458 21.4688 1.71875 17.9062C0.572917 14.3438 0 10.875 0 7.5C0 5.08333 0.4375 3.22917 1.3125 1.9375C2.1875 0.645833 3.41667 0 5 0C7.375 0 9.5 1.14583 11.375 3.4375C13.25 5.72917 14.6667 7.83333 15.625 9.75C16 10.5833 16.3438 11.4271 16.6562 12.2812C16.9688 13.1354 17.25 14.0208 17.5 14.9375C17.75 14.0208 18.0312 13.1354 18.3438 12.2812C18.6562 11.4271 19.0208 10.5833 19.4375 9.75C20.3542 7.83333 21.75 5.72917 23.625 3.4375C25.5 1.14583 27.625 0 30 0C31.5833 0 32.8125 0.645833 33.6875 1.9375C34.5625 3.22917 35 5.08333 35 7.5C35 10.875 34.4271 14.3438 33.2812 17.9062C32.1354 21.4688 30.5 24.875 28.375 28.125C28.75 28.5833 29.0521 28.9479 29.2812 29.2188C29.5104 29.4896 29.75 29.75 30 30C31.9167 31.9167 33.2292 33.4896 33.9375 34.7188C34.6458 35.9479 35 37.2917 35 38.75C35 41.875 33.9062 44.5312 31.7188 46.7188C29.5312 48.9062 26.875 50 23.75 50C21.875 50 20.3646 49.7917 19.2188 49.375C18.0729 48.9583 17.5 48.75 17.5 48.75C17.5 48.75 16.9271 48.9583 15.7812 49.375C14.6354 49.7917 13.125 50 11.25 50ZM11.25 45C12.2083 45 13.1667 44.8854 14.125 44.6562C15.0833 44.4271 15.9792 44.0833 16.8125 43.625C16.3542 43.4167 15.9375 43.0625 15.5625 42.5625C15.1875 42.0625 15 41.625 15 41.25C15 40.9167 15.2396 40.625 15.7188 40.375C16.1979 40.125 16.7917 40 17.5 40C18.2083 40 18.8021 40.125 19.2812 40.375C19.7604 40.625 20 40.9167 20 41.25C20 41.625 19.8125 42.0625 19.4375 42.5625C19.0625 43.0625 18.6458 43.4167 18.1875 43.625C19.0208 44.0833 19.9167 44.4271 20.875 44.6562C21.8333 44.8854 22.7917 45 23.75 45C25.5 45 26.9792 44.3958 28.1875 43.1875C29.3958 41.9792 30 40.5 30 38.75C30 38 29.7917 37.2708 29.375 36.5625C28.9583 35.8542 28.3333 35.1458 27.5 34.4375C26.9167 33.9375 26.4375 33.5 26.0625 33.125C25.6875 32.75 25.0833 32.0417 24.25 31C23.0417 29.5417 22.0417 28.5938 21.25 28.1562C20.4583 27.7188 19.2083 27.5 17.5 27.5C15.7917 27.5 14.5312 27.7188 13.7188 28.1562C12.9062 28.5938 11.9167 29.5417 10.75 31C9.91667 32.0417 9.3125 32.75 8.9375 33.125C8.5625 33.5 8.08333 33.9375 7.5 34.4375C6.66667 35.1458 6.04167 35.8542 5.625 36.5625C5.20833 37.2708 5 38 5 38.75C5 40.5 5.60417 41.9792 6.8125 43.1875C8.02083 44.3958 9.5 45 11.25 45ZM13.75 36.875C13.4167 36.875 13.125 36.6875 12.875 36.3125C12.625 35.9375 12.5 35.5 12.5 35C12.5 34.5 12.625 34.0625 12.875 33.6875C13.125 33.3125 13.4167 33.125 13.75 33.125C14.0833 33.125 14.375 33.3125 14.625 33.6875C14.875 34.0625 15 34.5 15 35C15 35.5 14.875 35.9375 14.625 36.3125C14.375 36.6875 14.0833 36.875 13.75 36.875ZM21.25 36.875C20.9167 36.875 20.625 36.6875 20.375 36.3125C20.125 35.9375 20 35.5 20 35C20 34.5 20.125 34.0625 20.375 33.6875C20.625 33.3125 20.9167 33.125 21.25 33.125C21.5833 33.125 21.875 33.3125 22.125 33.6875C22.375 34.0625 22.5 34.5 22.5 35C22.5 35.5 22.375 35.9375 22.125 36.3125C21.875 36.6875 21.5833 36.875 21.25 36.875ZM10.1875 24.4375C10.6458 24.1042 11.1667 23.8125 11.75 23.5625C12.3333 23.3125 12.9792 23.0833 13.6875 22.875C13.6042 20.875 13.3021 18.8854 12.7812 16.9062C12.2604 14.9271 11.6042 13.125 10.8125 11.5C10.0208 9.83333 9.14583 8.42708 8.1875 7.28125C7.22917 6.13542 6.27083 5.39583 5.3125 5.0625C5.22917 5.3125 5.15625 5.63542 5.09375 6.03125C5.03125 6.42708 5 6.91667 5 7.5C5 10.3333 5.44792 13.2083 6.34375 16.125C7.23958 19.0417 8.52083 21.8125 10.1875 24.4375ZM24.8125 24.4375C26.4792 21.8125 27.7604 19.0417 28.6562 16.125C29.5521 13.2083 30 10.3333 30 7.5C30 6.91667 29.9688 6.42708 29.9062 6.03125C29.8438 5.63542 29.7708 5.3125 29.6875 5.0625C28.7292 5.39583 27.7708 6.13542 26.8125 7.28125C25.8542 8.42708 24.9792 9.83333 24.1875 11.5C23.4375 13.125 22.8021 14.9271 22.2812 16.9062C21.7604 18.8854 21.4375 20.875 21.3125 22.875C21.9375 23.0417 22.5417 23.2604 23.125 23.5312C23.7083 23.8021 24.2708 24.1042 24.8125 24.4375Z" fill="#2AC82D"/>
</svg>
