<svg width="53" height="50" viewBox="0 0 53 50" fill="none" xmlns="http://www.w3.org/2000/svg">
<path d="M14.9375 40C13.0625 40 11.4271 39.4062 10.0312 38.2188C8.63542 37.0312 7.8125 35.5 7.5625 33.625C5.97917 32.7917 4.72917 31.6042 3.8125 30.0625C2.89583 28.5208 2.4375 26.8333 2.4375 25C2.4375 22.7917 3.07292 20.8229 4.34375 19.0938C5.61458 17.3646 7.3125 16.1667 9.4375 15.5L4.9375 11L4.1875 11.75C3.72917 12.2083 3.14583 12.4375 2.4375 12.4375C1.72917 12.4375 1.14583 12.2083 0.6875 11.75C0.229167 11.2917 0 10.7083 0 10C0 9.29167 0.229167 8.70833 0.6875 8.25L5.6875 3.25C6.14583 2.79167 6.72917 2.5625 7.4375 2.5625C8.14583 2.5625 8.72917 2.79167 9.1875 3.25C9.64583 3.70833 9.875 4.29167 9.875 5C9.875 5.70833 9.64583 6.29167 9.1875 6.75L8.4375 7.5L11.9375 11L13.9375 5.125C14.4375 3.58333 15.3438 2.34375 16.6562 1.40625C17.9688 0.46875 19.4375 0 21.0625 0H33.8125C35.4375 0 36.9062 0.46875 38.2188 1.40625C39.5312 2.34375 40.4375 3.58333 40.9375 5.125L44.3125 15.25C46.6875 15.7083 48.6354 16.8542 50.1562 18.6875C51.6771 20.5208 52.4375 22.625 52.4375 25C52.4375 26.8333 51.9792 28.5208 51.0625 30.0625C50.1458 31.6042 48.8958 32.7917 47.3125 33.625C47.0625 35.5 46.2396 37.0312 44.8438 38.2188C43.4479 39.4062 41.8125 40 39.9375 40C38.3542 40 36.9271 39.5417 35.6562 38.625C34.3854 37.7083 33.4792 36.5 32.9375 35H21.9375C21.3958 36.5 20.4896 37.7083 19.2188 38.625C17.9479 39.5417 16.5208 40 14.9375 40ZM15.9375 15H24.9375V5H21.0625C20.5208 5 20.0417 5.15625 19.625 5.46875C19.2083 5.78125 18.8958 6.20833 18.6875 6.75L15.9375 15ZM29.9375 15H38.9375L36.1875 6.75C35.9792 6.20833 35.6667 5.78125 35.25 5.46875C34.8333 5.15625 34.3542 5 33.8125 5H29.9375V15ZM21.9375 30H32.9375C33.4792 28.5 34.3854 27.2917 35.6562 26.375C36.9271 25.4583 38.3542 25 39.9375 25C41.1875 25 42.3542 25.2917 43.4375 25.875C44.5208 26.4583 45.4375 27.25 46.1875 28.25C46.5625 27.7917 46.8646 27.2812 47.0938 26.7188C47.3229 26.1562 47.4375 25.5833 47.4375 25C47.4375 23.625 46.9479 22.4479 45.9688 21.4688C44.9896 20.4896 43.8125 20 42.4375 20H12.4375C11.0625 20 9.88542 20.4896 8.90625 21.4688C7.92708 22.4479 7.4375 23.625 7.4375 25C7.4375 25.5833 7.55208 26.1562 7.78125 26.7188C8.01042 27.2812 8.3125 27.7917 8.6875 28.25C9.4375 27.25 10.3542 26.4583 11.4375 25.875C12.5208 25.2917 13.6875 25 14.9375 25C16.5208 25 17.9479 25.4583 19.2188 26.375C20.4896 27.2917 21.3958 28.5 21.9375 30ZM14.9375 35C15.6458 35 16.2396 34.7604 16.7188 34.2812C17.1979 33.8021 17.4375 33.2083 17.4375 32.5C17.4375 31.7917 17.1979 31.1979 16.7188 30.7188C16.2396 30.2396 15.6458 30 14.9375 30C14.2292 30 13.6354 30.2396 13.1562 30.7188C12.6771 31.1979 12.4375 31.7917 12.4375 32.5C12.4375 33.2083 12.6771 33.8021 13.1562 34.2812C13.6354 34.7604 14.2292 35 14.9375 35ZM39.9375 35C40.6458 35 41.2396 34.7604 41.7188 34.2812C42.1979 33.8021 42.4375 33.2083 42.4375 32.5C42.4375 31.7917 42.1979 31.1979 41.7188 30.7188C41.2396 30.2396 40.6458 30 39.9375 30C39.2292 30 38.6354 30.2396 38.1562 30.7188C37.6771 31.1979 37.4375 31.7917 37.4375 32.5C37.4375 33.2083 37.6771 33.8021 38.1562 34.2812C38.6354 34.7604 39.2292 35 39.9375 35Z" fill="#2AC82D"/>
</svg>
