<svg width="76" height="72" viewBox="0 0 76 72" fill="none" xmlns="http://www.w3.org/2000/svg">
<path d="M4 72V55L56.7 2.4C57.5 1.6 58.4 1 59.4 0.6C60.4 0.2 61.4 0 62.4 0C63.4667 0 64.4833 0.2 65.45 0.6C66.4167 1 67.2667 1.6 68 2.4L73.6 8C74.4 8.73333 75 9.58333 75.4 10.55C75.8 11.5167 76 12.5333 76 13.6C76 14.6 75.8 15.6 75.4 16.6C75 17.6 74.4 18.5 73.6 19.3L21 72H4ZM12 64H17.6L56.9 24.8L54.1 21.9L51.2 19.1L12 58.4V64ZM68 13.7L62.3 8L68 13.7ZM54.1 21.9L51.2 19.1L56.9 24.8L54.1 21.9ZM44 72C48.9333 72 53.5 70.7667 57.7 68.3C61.9 65.8333 64 62.4 64 58C64 55.6 63.3667 53.5333 62.1 51.8C60.8333 50.0667 59.1333 48.5667 57 47.3L51.1 53.2C52.6333 53.8667 53.8333 54.6 54.7 55.4C55.5667 56.2 56 57.0667 56 58C56 59.5333 54.7833 60.9167 52.35 62.15C49.9167 63.3833 47.1333 64 44 64C42.8667 64 41.9167 64.3833 41.15 65.15C40.3833 65.9167 40 66.8667 40 68C40 69.1333 40.3833 70.0833 41.15 70.85C41.9167 71.6167 42.8667 72 44 72ZM6.3 41.4L12.3 35.4C10.9667 34.8667 9.91667 34.3167 9.15 33.75C8.38333 33.1833 8 32.6 8 32C8 31.2 8.6 30.4 9.8 29.6C11 28.8 13.5333 27.5667 17.4 25.9C23.2667 23.3667 27.1667 21.0667 29.1 19C31.0333 16.9333 32 14.6 32 12C32 8.33333 30.5333 5.41667 27.6 3.25C24.6667 1.08333 20.8 0 16 0C13 0 10.3167 0.533333 7.95 1.6C5.58333 2.66667 3.76667 3.96667 2.5 5.5C1.76667 6.36667 1.46667 7.33333 1.6 8.4C1.73333 9.46667 2.23333 10.3333 3.1 11C3.96667 11.7333 4.93333 12.0333 6 11.9C7.06667 11.7667 7.96667 11.3333 8.7 10.6C9.63333 9.66667 10.6667 9 11.8 8.6C12.9333 8.2 14.3333 8 16 8C18.7333 8 20.75 8.4 22.05 9.2C23.35 10 24 10.9333 24 12C24 12.9333 23.4167 13.7833 22.25 14.55C21.0833 15.3167 18.4 16.6667 14.2 18.6C8.86667 20.9333 5.16667 23.05 3.1 24.95C1.03333 26.85 0 29.2 0 32C0 34.1333 0.566667 35.95 1.7 37.45C2.83333 38.95 4.36667 40.2667 6.3 41.4Z" fill="#003802" fill-opacity="0.2"/>
</svg>
