<svg width="41" height="41" viewBox="0 0 41 41" fill="none" xmlns="http://www.w3.org/2000/svg">
<path d="M19.997 40.343C17.264 40.2953 14.6903 39.7253 12.2756 38.633C9.86099 37.5406 7.76133 36.0704 5.97664 34.2223C4.19195 32.3743 2.79593 30.2246 1.78855 27.7733C0.78118 25.322 0.301345 22.7299 0.349048 19.997C0.397333 17.2307 0.984294 14.6406 2.10993 12.2265C3.23557 9.81245 4.73895 7.7217 6.62008 5.95426C8.50122 4.18682 10.6841 2.79971 13.1687 1.79292C15.6533 0.786125 18.2954 0.307162 21.095 0.356029C23.7613 0.402569 26.2695 0.904754 28.6199 1.86259C30.9702 2.82042 33.0227 4.1231 34.7776 5.77065C36.5324 7.41819 37.9154 9.35929 38.9266 11.5939C39.9377 13.8286 40.4209 16.2291 40.3761 18.7953C40.3092 22.6281 39.0914 25.549 36.7226 27.5579C34.3539 29.5669 31.5031 30.5423 28.1703 30.4841L24.4708 30.4195C24.1709 30.4143 23.9611 30.494 23.8416 30.6586C23.722 30.8232 23.6605 31.0055 23.657 31.2054C23.65 31.6054 23.8899 32.1847 24.3768 32.9433C24.8636 33.7019 25.0986 34.5645 25.0817 35.531C25.0526 37.1974 24.5728 38.4225 23.6424 39.2064C22.7119 39.9903 21.4967 40.3691 19.997 40.343ZM9.31278 22.1537C10.1793 22.1689 10.9008 21.8981 11.4773 21.3414C12.0538 20.7847 12.3496 20.0731 12.3647 19.2065C12.3798 18.34 12.109 17.6185 11.5523 17.042C10.9956 16.4656 10.284 16.1698 9.41749 16.1546C8.55095 16.1395 7.82945 16.4103 7.25298 16.967C6.67651 17.5237 6.38071 18.2353 6.36559 19.1018C6.35046 19.9684 6.62125 20.6899 7.17794 21.2663C7.73463 21.8428 8.44624 22.1386 9.31278 22.1537ZM15.4515 14.2597C16.318 14.2748 17.0395 14.004 17.616 13.4473C18.1925 12.8906 18.4883 12.179 18.5034 11.3125C18.5185 10.4459 18.2477 9.72443 17.691 9.14796C17.1343 8.57149 16.4227 8.2757 15.5562 8.26057C14.6897 8.24544 13.9682 8.51623 13.3917 9.07292C12.8152 9.62961 12.5194 10.3412 12.5043 11.2078C12.4892 12.0743 12.76 12.7958 13.3166 13.3723C13.8733 13.9487 14.5849 14.2445 15.4515 14.2597ZM25.45 14.4342C26.3165 14.4493 27.038 14.1785 27.6145 13.6218C28.1909 13.0651 28.4867 12.3535 28.5019 11.487C28.517 10.6205 28.2462 9.89896 27.6895 9.32249C27.1328 8.74602 26.4212 8.45022 25.5547 8.43509C24.6881 8.41997 23.9666 8.69075 23.3902 9.24744C22.8137 9.80413 22.5179 10.5157 22.5028 11.3823C22.4877 12.2488 22.7584 12.9703 23.3151 13.5468C23.8718 14.1233 24.5834 14.4191 25.45 14.4342ZM31.3094 22.5377C32.176 22.5528 32.8975 22.282 33.4739 21.7253C34.0504 21.1686 34.3462 20.457 34.3613 19.5905C34.3765 18.724 34.1057 18.0025 33.549 17.426C32.9923 16.8495 32.2807 16.5537 31.4141 16.5386C30.5476 16.5235 29.8261 16.7942 29.2496 17.3509C28.6732 17.9076 28.3774 18.6192 28.3622 19.4858C28.3471 20.3523 28.6179 21.0738 29.1746 21.6503C29.7313 22.2268 30.4429 22.5226 31.3094 22.5377Z" fill="#003802"/>
</svg>
