<svg width="28" height="28" viewBox="0 0 28 28" fill="none" xmlns="http://www.w3.org/2000/svg">
<path d="M13.75 27.5C11.8708 27.5 10.0948 27.1391 8.42188 26.4172C6.74896 25.6953 5.28802 24.7099 4.03906 23.4609C2.7901 22.212 1.80469 20.751 1.08281 19.0781C0.360938 17.4052 0 15.6292 0 13.75C0 11.8479 0.372396 10.0604 1.11719 8.3875C1.86198 6.71458 2.87031 5.25938 4.14219 4.02188C5.41406 2.78438 6.89792 1.80469 8.59375 1.08281C10.2896 0.360938 12.1 0 14.025 0C15.8583 0 17.5885 0.315104 19.2156 0.945313C20.8427 1.57552 22.2693 2.44635 23.4953 3.55781C24.7214 4.66927 25.6953 5.98698 26.4172 7.51094C27.1391 9.0349 27.5 10.6792 27.5 12.4438C27.5 15.0792 26.6979 17.1016 25.0938 18.5109C23.4896 19.9203 21.5417 20.625 19.25 20.625H16.7063C16.5 20.625 16.3568 20.6823 16.2766 20.7969C16.1964 20.9115 16.1563 21.0375 16.1563 21.175C16.1563 21.45 16.3281 21.8453 16.6719 22.3609C17.0156 22.8766 17.1875 23.4667 17.1875 24.1313C17.1875 25.2771 16.8724 26.125 16.2422 26.675C15.612 27.225 14.7813 27.5 13.75 27.5ZM6.1875 15.125C6.78333 15.125 7.27604 14.9302 7.66563 14.5406C8.05521 14.151 8.25 13.6583 8.25 13.0625C8.25 12.4667 8.05521 11.974 7.66563 11.5844C7.27604 11.1948 6.78333 11 6.1875 11C5.59167 11 5.09896 11.1948 4.70938 11.5844C4.31979 11.974 4.125 12.4667 4.125 13.0625C4.125 13.6583 4.31979 14.151 4.70938 14.5406C5.09896 14.9302 5.59167 15.125 6.1875 15.125ZM10.3125 9.625C10.9083 9.625 11.401 9.43021 11.7906 9.04063C12.1802 8.65104 12.375 8.15833 12.375 7.5625C12.375 6.96667 12.1802 6.47396 11.7906 6.08438C11.401 5.69479 10.9083 5.5 10.3125 5.5C9.71667 5.5 9.22396 5.69479 8.83438 6.08438C8.44479 6.47396 8.25 6.96667 8.25 7.5625C8.25 8.15833 8.44479 8.65104 8.83438 9.04063C9.22396 9.43021 9.71667 9.625 10.3125 9.625ZM17.1875 9.625C17.7833 9.625 18.276 9.43021 18.6656 9.04063C19.0552 8.65104 19.25 8.15833 19.25 7.5625C19.25 6.96667 19.0552 6.47396 18.6656 6.08438C18.276 5.69479 17.7833 5.5 17.1875 5.5C16.5917 5.5 16.099 5.69479 15.7094 6.08438C15.3198 6.47396 15.125 6.96667 15.125 7.5625C15.125 8.15833 15.3198 8.65104 15.7094 9.04063C16.099 9.43021 16.5917 9.625 17.1875 9.625ZM21.3125 15.125C21.9083 15.125 22.401 14.9302 22.7906 14.5406C23.1802 14.151 23.375 13.6583 23.375 13.0625C23.375 12.4667 23.1802 11.974 22.7906 11.5844C22.401 11.1948 21.9083 11 21.3125 11C20.7167 11 20.224 11.1948 19.8344 11.5844C19.4448 11.974 19.25 12.4667 19.25 13.0625C19.25 13.6583 19.4448 14.151 19.8344 14.5406C20.224 14.9302 20.7167 15.125 21.3125 15.125Z" fill="#6C5A00"/>
</svg>
