<svg width="30" height="26" viewBox="0 0 30 26" fill="none" xmlns="http://www.w3.org/2000/svg">
<path d="M22.8191 22.5H29.9441V25.5H19.8191L22.8191 22.5ZM4.06915 25.5L0.881649 22.3125C0.306649 21.7375 0.0128989 21.025 0.000398936 20.175C-0.0121011 19.325 0.269149 18.6 0.844149 18L17.3441 0.9C17.9191 0.3 18.6254 0 19.4629 0C20.3004 0 21.0066 0.2875 21.5816 0.8625L29.0441 8.325C29.6192 8.9 29.9066 9.6125 29.9066 10.4625C29.9066 11.3125 29.6192 12.025 29.0441 12.6L16.4441 25.5H4.06915ZM15.1691 22.5L26.9441 10.425L19.5191 3L2.94415 20.1L5.34415 22.5H15.1691Z" fill="#005267"/>
</svg>
