<svg width="22" height="14" viewBox="0 0 22 14" fill="none" xmlns="http://www.w3.org/2000/svg">
<path d="M2.2 13.2C1.595 13.2 1.07708 12.9846 0.64625 12.5538C0.215417 12.1229 0 11.605 0 11V2.2C0 1.595 0.215417 1.07708 0.64625 0.64625C1.07708 0.215417 1.595 0 2.2 0H19.8C20.405 0 20.9229 0.215417 21.3538 0.64625C21.7846 1.07708 22 1.595 22 2.2V11C22 11.605 21.7846 12.1229 21.3538 12.5538C20.9229 12.9846 20.405 13.2 19.8 13.2H2.2ZM5.5 9.9H7.7V7.7H9.9V5.5H7.7V3.3H5.5V5.5H3.3V7.7H5.5V9.9ZM13.75 9.9C14.2083 9.9 14.5979 9.73958 14.9188 9.41875C15.2396 9.09792 15.4 8.70833 15.4 8.25C15.4 7.79167 15.2396 7.40208 14.9188 7.08125C14.5979 6.76042 14.2083 6.6 13.75 6.6C13.2917 6.6 12.9021 6.76042 12.5813 7.08125C12.2604 7.40208 12.1 7.79167 12.1 8.25C12.1 8.70833 12.2604 9.09792 12.5813 9.41875C12.9021 9.73958 13.2917 9.9 13.75 9.9ZM17.05 6.6C17.5083 6.6 17.8979 6.43958 18.2188 6.11875C18.5396 5.79792 18.7 5.40833 18.7 4.95C18.7 4.49167 18.5396 4.10208 18.2188 3.78125C17.8979 3.46042 17.5083 3.3 17.05 3.3C16.5917 3.3 16.2021 3.46042 15.8813 3.78125C15.5604 4.10208 15.4 4.49167 15.4 4.95C15.4 5.40833 15.5604 5.79792 15.8813 6.11875C16.2021 6.43958 16.5917 6.6 17.05 6.6Z" fill="#6C5A00"/>
</svg>
