<svg width="20" height="12" viewBox="0 0 20 12" fill="none" xmlns="http://www.w3.org/2000/svg">
<path d="M2 12C1.45 12 0.979167 11.8042 0.5875 11.4125C0.195833 11.0208 0 10.55 0 10V2C0 1.45 0.195833 0.979167 0.5875 0.5875C0.979167 0.195833 1.45 0 2 0H18C18.55 0 19.0208 0.195833 19.4125 0.5875C19.8042 0.979167 20 1.45 20 2V10C20 10.55 19.8042 11.0208 19.4125 11.4125C19.0208 11.8042 18.55 12 18 12H2ZM2 10H18V2H2V10ZM5 9H7V7H9V5H7V3H5V5H3V7H5V9ZM12.5 9C12.9167 9 13.2708 8.85417 13.5625 8.5625C13.8542 8.27083 14 7.91667 14 7.5C14 7.08333 13.8542 6.72917 13.5625 6.4375C13.2708 6.14583 12.9167 6 12.5 6C12.0833 6 11.7292 6.14583 11.4375 6.4375C11.1458 6.72917 11 7.08333 11 7.5C11 7.91667 11.1458 8.27083 11.4375 8.5625C11.7292 8.85417 12.0833 9 12.5 9ZM15.5 6C15.9167 6 16.2708 5.85417 16.5625 5.5625C16.8542 5.27083 17 4.91667 17 4.5C17 4.08333 16.8542 3.72917 16.5625 3.4375C16.2708 3.14583 15.9167 3 15.5 3C15.0833 3 14.7292 3.14583 14.4375 3.4375C14.1458 3.72917 14 4.08333 14 4.5C14 4.91667 14.1458 5.27083 14.4375 5.5625C14.7292 5.85417 15.0833 6 15.5 6ZM2 10V2V10Z" fill="#04647D"/>
</svg>
