<svg width="41" height="26" viewBox="0 0 41 26" fill="none" xmlns="http://www.w3.org/2000/svg">
<path d="M4.83515 25.2418C3.73582 25.2802 2.78106 24.9216 1.97087 24.1661C1.16067 23.4106 0.736379 22.4831 0.69799 21.3838L0.139598 5.39356C0.101209 4.29423 0.459773 3.33947 1.21529 2.52927C1.97081 1.71908 2.89823 1.29479 3.99756 1.2564L35.9781 0.139614C37.0774 0.101225 38.0322 0.459789 38.8424 1.21531C39.6526 1.97083 40.0768 2.89825 40.1152 3.99758L40.6736 19.9878C40.712 21.0872 40.3535 22.0419 39.5979 22.8521C38.8424 23.6623 37.915 24.0866 36.8157 24.125L4.83515 25.2418ZM10.6221 19.036L14.6197 18.8964L14.4801 14.8989L18.4776 14.7593L18.338 10.7617L14.3405 10.9013L14.2009 6.90375L10.2033 7.04335L10.3429 11.0409L6.34534 11.1805L6.48494 15.1781L10.4825 15.0385L10.6221 19.036ZM25.613 18.5125C26.4458 18.4835 27.1435 18.1673 27.7061 17.5639C28.2688 16.9606 28.5355 16.2425 28.5064 15.4097C28.4774 14.5768 28.1611 13.8791 27.5578 13.3165C26.9545 12.7539 26.2364 12.4871 25.4036 12.5162C24.5707 12.5453 23.873 12.8615 23.3104 13.4648C22.7478 14.0682 22.481 14.7862 22.5101 15.6191C22.5392 16.4519 22.8554 17.1496 23.4587 17.7122C24.0621 18.2749 24.7801 18.5416 25.613 18.5125ZM31.3999 12.3068C32.2327 12.2777 32.9305 11.9615 33.4931 11.3582C34.0557 10.7548 34.3225 10.0368 34.2934 9.20393C34.2643 8.37111 33.9481 7.67338 33.3448 7.11076C32.7414 6.54814 32.0233 6.28137 31.1905 6.31046C30.3577 6.33954 29.66 6.65575 29.0973 7.25909C28.5347 7.86242 28.268 8.5805 28.297 9.41333C28.3261 10.2462 28.6423 10.9439 29.2457 11.5065C29.849 12.0691 30.5671 12.3359 31.3999 12.3068Z" fill="white"/>
</svg>
