<svg width="41" height="39" viewBox="0 0 41 39" fill="none" xmlns="http://www.w3.org/2000/svg">
<path d="M4 33.6667L2.3 32.9667C1.26667 32.5333 0.575 31.7833 0.225 30.7167C-0.125 29.65 -0.0666667 28.6 0.4 27.5667L4 19.7667V33.6667ZM12 38.0667C10.9 38.0667 9.95833 37.675 9.175 36.8917C8.39167 36.1083 8 35.1667 8 34.0667V22.0667L13.3 36.7667C13.4 37 13.5 37.225 13.6 37.4417C13.7 37.6583 13.8333 37.8667 14 38.0667H12ZM22.3 37.8667C21.2333 38.2667 20.2 38.2167 19.2 37.7167C18.2 37.2167 17.5 36.4333 17.1 35.3667L8.2 10.9667C7.8 9.9 7.83333 8.85833 8.3 7.84167C8.76667 6.825 9.53333 6.13333 10.6 5.76667L25.7 0.266667C26.7667 -0.133333 27.8 -0.0833333 28.8 0.416667C29.8 0.916667 30.5 1.7 30.9 2.76667L39.8 27.1667C40.2 28.2333 40.1667 29.275 39.7 30.2917C39.2333 31.3083 38.4667 32 37.4 32.3667L22.3 37.8667ZM18 14.0667C18.5667 14.0667 19.0417 13.875 19.425 13.4917C19.8083 13.1083 20 12.6333 20 12.0667C20 11.5 19.8083 11.025 19.425 10.6417C19.0417 10.2583 18.5667 10.0667 18 10.0667C17.4333 10.0667 16.9583 10.2583 16.575 10.6417C16.1917 11.025 16 11.5 16 12.0667C16 12.6333 16.1917 13.1083 16.575 13.4917C16.9583 13.875 17.4333 14.0667 18 14.0667ZM20.9 34.0667L36 28.5667L27.1 4.06667L12 9.56667L20.9 34.0667ZM12 9.56667L27.1 4.06667L12 9.56667Z" fill="#005267"/>
</svg>
