<svg width="50" height="50" viewBox="0 0 50 50" fill="none" xmlns="http://www.w3.org/2000/svg">
<path d="M25 50C21.5833 50 18.3542 49.3438 15.3125 48.0312C12.2708 46.7188 9.61458 44.9271 7.34375 42.6562C5.07292 40.3854 3.28125 37.7292 1.96875 34.6875C0.65625 31.6458 0 28.4167 0 25C0 21.5417 0.677083 18.2917 2.03125 15.25C3.38542 12.2083 5.21875 9.5625 7.53125 7.3125C9.84375 5.0625 12.5417 3.28125 15.625 1.96875C18.7083 0.65625 22 0 25.5 0C28.8333 0 31.9792 0.572917 34.9375 1.71875C37.8958 2.86458 40.4896 4.44792 42.7188 6.46875C44.9479 8.48958 46.7188 10.8854 48.0312 13.6562C49.3438 16.4271 50 19.4167 50 22.625C50 27.4167 48.5417 31.0938 45.625 33.6562C42.7083 36.2188 39.1667 37.5 35 37.5H30.375C30 37.5 29.7396 37.6042 29.5938 37.8125C29.4479 38.0208 29.375 38.25 29.375 38.5C29.375 39 29.6875 39.7188 30.3125 40.6562C30.9375 41.5938 31.25 42.6667 31.25 43.875C31.25 45.9583 30.6771 47.5 29.5312 48.5C28.3854 49.5 26.875 50 25 50ZM11.25 27.5C12.3333 27.5 13.2292 27.1458 13.9375 26.4375C14.6458 25.7292 15 24.8333 15 23.75C15 22.6667 14.6458 21.7708 13.9375 21.0625C13.2292 20.3542 12.3333 20 11.25 20C10.1667 20 9.27083 20.3542 8.5625 21.0625C7.85417 21.7708 7.5 22.6667 7.5 23.75C7.5 24.8333 7.85417 25.7292 8.5625 26.4375C9.27083 27.1458 10.1667 27.5 11.25 27.5ZM18.75 17.5C19.8333 17.5 20.7292 17.1458 21.4375 16.4375C22.1458 15.7292 22.5 14.8333 22.5 13.75C22.5 12.6667 22.1458 11.7708 21.4375 11.0625C20.7292 10.3542 19.8333 10 18.75 10C17.6667 10 16.7708 10.3542 16.0625 11.0625C15.3542 11.7708 15 12.6667 15 13.75C15 14.8333 15.3542 15.7292 16.0625 16.4375C16.7708 17.1458 17.6667 17.5 18.75 17.5ZM31.25 17.5C32.3333 17.5 33.2292 17.1458 33.9375 16.4375C34.6458 15.7292 35 14.8333 35 13.75C35 12.6667 34.6458 11.7708 33.9375 11.0625C33.2292 10.3542 32.3333 10 31.25 10C30.1667 10 29.2708 10.3542 28.5625 11.0625C27.8542 11.7708 27.5 12.6667 27.5 13.75C27.5 14.8333 27.8542 15.7292 28.5625 16.4375C29.2708 17.1458 30.1667 17.5 31.25 17.5ZM38.75 27.5C39.8333 27.5 40.7292 27.1458 41.4375 26.4375C42.1458 25.7292 42.5 24.8333 42.5 23.75C42.5 22.6667 42.1458 21.7708 41.4375 21.0625C40.7292 20.3542 39.8333 20 38.75 20C37.6667 20 36.7708 20.3542 36.0625 21.0625C35.3542 21.7708 35 22.6667 35 23.75C35 24.8333 35.3542 25.7292 36.0625 26.4375C36.7708 27.1458 37.6667 27.5 38.75 27.5ZM25 45C25.375 45 25.6771 44.8958 25.9062 44.6875C26.1354 44.4792 26.25 44.2083 26.25 43.875C26.25 43.2917 25.9375 42.6042 25.3125 41.8125C24.6875 41.0208 24.375 39.8333 24.375 38.25C24.375 36.5 24.9792 35.1042 26.1875 34.0625C27.3958 33.0208 28.875 32.5 30.625 32.5H35C37.75 32.5 40.1042 31.6979 42.0625 30.0938C44.0208 28.4896 45 26 45 22.625C45 17.5833 43.0729 13.3854 39.2188 10.0312C35.3646 6.67708 30.7917 5 25.5 5C19.8333 5 15 6.9375 11 10.8125C7 14.6875 5 19.4167 5 25C5 30.5417 6.94792 35.2604 10.8438 39.1562C14.7396 43.0521 19.4583 45 25 45Z" fill="#2AC82D"/>
</svg>
