<svg width="30" height="30" viewBox="0 0 30 30" fill="none" xmlns="http://www.w3.org/2000/svg">
<path d="M3.55493 13.1343C2.50637 13.0794 1.63905 12.6709 0.952991 11.909C0.266928 11.147 -0.0486272 10.2418 0.00632556 9.19322C0.0612784 8.14465 0.46973 7.27734 1.23168 6.59128C1.99363 5.90522 2.89889 5.58966 3.94745 5.64461C4.99601 5.69957 5.86332 6.10802 6.54938 6.86997C7.23545 7.63192 7.551 8.53717 7.49605 9.58574C7.4411 10.6343 7.03265 11.5016 6.2707 12.1877C5.50875 12.8737 4.60349 13.1893 3.55493 13.1343ZM10.6097 7.49583C9.56113 7.44087 8.69382 7.03242 8.00776 6.27047C7.3217 5.50852 7.00614 4.60327 7.06109 3.5547C7.11605 2.50614 7.5245 1.63883 8.28645 0.952767C9.0484 0.266704 9.95365 -0.0488513 11.0022 0.00610149C12.0508 0.0610543 12.9181 0.469506 13.6042 1.23146C14.2902 1.99341 14.6058 2.89866 14.5508 3.94722C14.4959 4.99579 14.0874 5.8631 13.3255 6.54916C12.5635 7.23522 11.6583 7.55078 10.6097 7.49583ZM19.5974 7.96685C18.5488 7.9119 17.6815 7.50345 16.9954 6.7415C16.3094 5.97955 15.9938 5.07429 16.0488 4.02573C16.1037 2.97717 16.5122 2.10985 17.2741 1.42379C18.0361 0.737728 18.9413 0.422173 19.9899 0.477125C21.0384 0.532078 21.9058 0.94053 22.5918 1.70248C23.2779 2.46443 23.5934 3.36969 23.5385 4.41825C23.4835 5.46681 23.0751 6.33412 22.3131 7.02018C21.5512 7.70625 20.6459 8.0218 19.5974 7.96685ZM26.0241 14.3119C24.9755 14.2569 24.1082 13.8485 23.4222 13.0865C22.7361 12.3246 22.4205 11.4193 22.4755 10.3708C22.5305 9.32221 22.9389 8.4549 23.7009 7.76884C24.4628 7.08278 25.3681 6.76722 26.4166 6.82217C27.4652 6.87713 28.3325 7.28558 29.0186 8.04753C29.7046 8.80948 30.0202 9.71473 29.9652 10.7633C29.9103 11.8119 29.5018 12.6792 28.7399 13.3652C27.9779 14.0513 27.0727 14.3669 26.0241 14.3119ZM5.99047 28.2826C4.86701 28.2237 3.94712 27.7436 3.23081 26.8424C2.51449 25.9412 2.18708 24.9039 2.24858 23.7305C2.31661 22.4323 2.81929 21.3196 3.7566 20.3923C4.69391 19.4651 5.62433 18.5501 6.54785 17.6472C7.31242 16.9112 7.98072 16.1013 8.55276 15.2175C9.12479 14.3337 9.79375 13.5114 10.5596 12.7504C11.1429 12.1301 11.8076 11.6267 12.5539 11.2402C13.3001 10.8537 14.0977 10.6827 14.9465 10.7272C15.7954 10.7717 16.5713 11.0127 17.2744 11.4501C17.9775 11.8874 18.5866 12.4451 19.1018 13.123C19.759 13.9585 20.3318 14.8522 20.8201 15.8041C21.3085 16.756 21.8937 17.6503 22.5759 18.4872C23.3999 19.4816 24.2296 20.4889 25.0649 21.5091C25.9001 22.5292 26.2837 23.6883 26.2157 24.9866C26.1542 26.1599 25.7202 27.1574 24.9136 27.9788C24.107 28.8002 23.1419 29.1814 22.0185 29.1226C20.6703 29.0519 19.3406 28.8696 18.0291 28.5755C16.7177 28.2815 15.388 28.0991 14.0398 28.0285C12.6917 27.9578 11.3501 28.0002 10.0151 28.1555C8.68018 28.3109 7.33862 28.3532 5.99047 28.2826Z" fill="#453900"/>
</svg>
