<svg width="29" height="50" viewBox="0 0 29 50" fill="none" xmlns="http://www.w3.org/2000/svg">
<path d="M-2.71875 45H14.5312L17.0312 35H-5.21875L-2.71875 45ZM-2.71875 50C-3.88542 50 -4.90625 49.6458 -5.78125 48.9375C-6.65625 48.2292 -7.23958 47.3125 -7.53125 46.1875L-10.3438 35H22.1562L19.3438 46.1875C19.0521 47.3125 18.4688 48.2292 17.5938 48.9375C16.7188 49.6458 15.6979 50 14.5312 50H-2.71875ZM-11.5938 30H23.4062V25H-11.5938V30ZM5.90625 15C5.90625 10.8333 7.36458 7.29167 10.2812 4.375C13.1979 1.45833 16.7396 0 20.9062 0C20.9062 3.75 19.7188 7 17.3438 9.75C14.9688 12.5 11.9896 14.1667 8.40625 14.75V20H28.4062V30C28.4062 31.375 27.9167 32.5521 26.9375 33.5312C25.9583 34.5104 24.7812 35 23.4062 35H-11.5938C-12.9688 35 -14.1458 34.5104 -15.125 33.5312C-16.1042 32.5521 -16.5938 31.375 -16.5938 30V20H3.40625V14.75C-0.177084 14.1667 -3.15625 12.5 -5.53125 9.75C-7.90625 7 -9.09375 3.75 -9.09375 0C-4.92708 0 -1.38542 1.45833 1.53125 4.375C4.44792 7.29167 5.90625 10.8333 5.90625 15Z" fill="#2AC82D"/>
</svg>
