<svg width="40" height="40" viewBox="0 0 40 40" fill="none" xmlns="http://www.w3.org/2000/svg">
<path d="M20 40C17.2667 40 14.6833 39.475 12.25 38.425C9.81667 37.375 7.69167 35.9417 5.875 34.125C4.05833 32.3083 2.625 30.1833 1.575 27.75C0.525 25.3167 0 22.7333 0 20C0 17.2333 0.541667 14.6333 1.625 12.2C2.70833 9.76667 4.175 7.65 6.025 5.85C7.875 4.05 10.0333 2.625 12.5 1.575C14.9667 0.525 17.6 0 20.4 0C23.0667 0 25.5833 0.458333 27.95 1.375C30.3167 2.29167 32.3917 3.55833 34.175 5.175C35.9583 6.79167 37.375 8.70833 38.425 10.925C39.475 13.1417 40 15.5333 40 18.1C40 21.9333 38.8333 24.875 36.5 26.925C34.1667 28.975 31.3333 30 28 30H24.3C24 30 23.7917 30.0833 23.675 30.25C23.5583 30.4167 23.5 30.6 23.5 30.8C23.5 31.2 23.75 31.775 24.25 32.525C24.75 33.275 25 34.1333 25 35.1C25 36.7667 24.5417 38 23.625 38.8C22.7083 39.6 21.5 40 20 40ZM9 22C9.86667 22 10.5833 21.7167 11.15 21.15C11.7167 20.5833 12 19.8667 12 19C12 18.1333 11.7167 17.4167 11.15 16.85C10.5833 16.2833 9.86667 16 9 16C8.13333 16 7.41667 16.2833 6.85 16.85C6.28333 17.4167 6 18.1333 6 19C6 19.8667 6.28333 20.5833 6.85 21.15C7.41667 21.7167 8.13333 22 9 22ZM15 14C15.8667 14 16.5833 13.7167 17.15 13.15C17.7167 12.5833 18 11.8667 18 11C18 10.1333 17.7167 9.41667 17.15 8.85C16.5833 8.28333 15.8667 8 15 8C14.1333 8 13.4167 8.28333 12.85 8.85C12.2833 9.41667 12 10.1333 12 11C12 11.8667 12.2833 12.5833 12.85 13.15C13.4167 13.7167 14.1333 14 15 14ZM25 14C25.8667 14 26.5833 13.7167 27.15 13.15C27.7167 12.5833 28 11.8667 28 11C28 10.1333 27.7167 9.41667 27.15 8.85C26.5833 8.28333 25.8667 8 25 8C24.1333 8 23.4167 8.28333 22.85 8.85C22.2833 9.41667 22 10.1333 22 11C22 11.8667 22.2833 12.5833 22.85 13.15C23.4167 13.7167 24.1333 14 25 14ZM31 22C31.8667 22 32.5833 21.7167 33.15 21.15C33.7167 20.5833 34 19.8667 34 19C34 18.1333 33.7167 17.4167 33.15 16.85C32.5833 16.2833 31.8667 16 31 16C30.1333 16 29.4167 16.2833 28.85 16.85C28.2833 17.4167 28 18.1333 28 19C28 19.8667 28.2833 20.5833 28.85 21.15C29.4167 21.7167 30.1333 22 31 22ZM20 36C20.3 36 20.5417 35.9167 20.725 35.75C20.9083 35.5833 21 35.3667 21 35.1C21 34.6333 20.75 34.0833 20.25 33.45C19.75 32.8167 19.5 31.8667 19.5 30.6C19.5 29.2 19.9833 28.0833 20.95 27.25C21.9167 26.4167 23.1 26 24.5 26H28C30.2 26 32.0833 25.3583 33.65 24.075C35.2167 22.7917 36 20.8 36 18.1C36 14.0667 34.4583 10.7083 31.375 8.025C28.2917 5.34167 24.6333 4 20.4 4C15.8667 4 12 5.55 8.8 8.65C5.6 11.75 4 15.5333 4 20C4 24.4333 5.55833 28.2083 8.675 31.325C11.7917 34.4417 15.5667 36 20 36Z" fill="#63003D"/>
</svg>
