<svg width="39" height="39" viewBox="0 0 39 39" fill="none" xmlns="http://www.w3.org/2000/svg">
<path d="M11.6 39H4C2.9 39 1.95833 38.6083 1.175 37.825C0.391667 37.0417 0 36.1 0 35V27.4C1.6 27.4 3 26.8917 4.2 25.875C5.4 24.8583 6 23.5667 6 22C6 20.4333 5.4 19.1417 4.2 18.125C3 17.1083 1.6 16.6 0 16.6V9C0 7.9 0.391667 6.95833 1.175 6.175C1.95833 5.39167 2.9 5 4 5H12C12 3.6 12.4833 2.41667 13.45 1.45C14.4167 0.483333 15.6 0 17 0C18.4 0 19.5833 0.483333 20.55 1.45C21.5167 2.41667 22 3.6 22 5H30C31.1 5 32.0417 5.39167 32.825 6.175C33.6083 6.95833 34 7.9 34 9V17C35.4 17 36.5833 17.4833 37.55 18.45C38.5167 19.4167 39 20.6 39 22C39 23.4 38.5167 24.5833 37.55 25.55C36.5833 26.5167 35.4 27 34 27V35C34 36.1 33.6083 37.0417 32.825 37.825C32.0417 38.6083 31.1 39 30 39H22.4C22.4 37.3333 21.875 35.9167 20.825 34.75C19.775 33.5833 18.5 33 17 33C15.5 33 14.225 33.5833 13.175 34.75C12.125 35.9167 11.6 37.3333 11.6 39ZM4 35H8.25C9.05 32.8 10.3333 31.25 12.1 30.35C13.8667 29.45 15.5 29 17 29C18.5 29 20.1333 29.45 21.9 30.35C23.6667 31.25 24.95 32.8 25.75 35H30V23H34C34.2667 23 34.5 22.9 34.7 22.7C34.9 22.5 35 22.2667 35 22C35 21.7333 34.9 21.5 34.7 21.3C34.5 21.1 34.2667 21 34 21H30V9H18V5C18 4.73333 17.9 4.5 17.7 4.3C17.5 4.1 17.2667 4 17 4C16.7333 4 16.5 4.1 16.3 4.3C16.1 4.5 16 4.73333 16 5V9H4V13.4C5.8 14.0667 7.25 15.1833 8.35 16.75C9.45 18.3167 10 20.0667 10 22C10 23.9 9.45 25.6333 8.35 27.2C7.25 28.7667 5.8 29.9 4 30.6V35Z" fill="#5B4B00"/>
</svg>
