<svg width="25" height="25" viewBox="0 0 25 25" fill="none" xmlns="http://www.w3.org/2000/svg">
<path d="M12.5 25C10.7917 25 9.17708 24.6719 7.65625 24.0156C6.13542 23.3594 4.80729 22.4635 3.67188 21.3281C2.53646 20.1927 1.64062 18.8646 0.984375 17.3438C0.328125 15.8229 0 14.2083 0 12.5C0 10.7708 0.328125 9.14583 0.984375 7.625C1.64062 6.10417 2.53646 4.78125 3.67188 3.65625C4.80729 2.53125 6.13542 1.64062 7.65625 0.984375C9.17708 0.328125 10.7917 0 12.5 0C14.2292 0 15.8542 0.328125 17.375 0.984375C18.8958 1.64062 20.2188 2.53125 21.3438 3.65625C22.4688 4.78125 23.3594 6.10417 24.0156 7.625C24.6719 9.14583 25 10.7708 25 12.5C25 14.2083 24.6719 15.8229 24.0156 17.3438C23.3594 18.8646 22.4688 20.1927 21.3438 21.3281C20.2188 22.4635 18.8958 23.3594 17.375 24.0156C15.8542 24.6719 14.2292 25 12.5 25ZM12.5 2.5C10.1875 2.5 8.14583 3.19271 6.375 4.57812C4.60417 5.96354 3.42708 7.72917 2.84375 9.875C3.26042 9.77083 3.69271 9.56771 4.14062 9.26562C4.58854 8.96354 5.10417 8.22917 5.6875 7.0625C6 6.41667 6.45833 5.91146 7.0625 5.54688C7.66667 5.18229 8.33333 5 9.0625 5H15.9375C16.6667 5 17.3333 5.18229 17.9375 5.54688C18.5417 5.91146 19 6.41667 19.3125 7.0625C19.8958 8.25 20.4219 8.98958 20.8906 9.28125C21.3594 9.57292 21.7812 9.77083 22.1562 9.875C21.5729 7.72917 20.401 5.96354 18.6406 4.57812C16.8802 3.19271 14.8333 2.5 12.5 2.5ZM12.5 22.5C15.2917 22.5 17.6615 21.5208 19.6094 19.5625C21.5573 17.6042 22.5208 15.2292 22.5 12.4375C21.0208 12.2917 19.8854 11.8281 19.0938 11.0469C18.3021 10.2656 17.625 9.3125 17.0625 8.1875C16.9583 7.95833 16.8073 7.78646 16.6094 7.67188C16.4115 7.55729 16.1979 7.5 15.9688 7.5H9.0625C8.8125 7.5 8.58854 7.55729 8.39062 7.67188C8.19271 7.78646 8.04167 7.95833 7.9375 8.1875C7.375 9.33333 6.6875 10.2969 5.875 11.0781C5.0625 11.8594 3.9375 12.3229 2.5 12.4688C2.5 15.2604 3.47396 17.6302 5.42188 19.5781C7.36979 21.526 9.72917 22.5 12.5 22.5ZM8.75 15.3125C8.3125 15.3125 7.94271 15.1615 7.64062 14.8594C7.33854 14.5573 7.1875 14.1875 7.1875 13.75C7.1875 13.3125 7.33854 12.9427 7.64062 12.6406C7.94271 12.3385 8.3125 12.1875 8.75 12.1875C9.1875 12.1875 9.55729 12.3385 9.85938 12.6406C10.1615 12.9427 10.3125 13.3125 10.3125 13.75C10.3125 14.1875 10.1615 14.5573 9.85938 14.8594C9.55729 15.1615 9.1875 15.3125 8.75 15.3125ZM16.25 15.3125C15.8125 15.3125 15.4427 15.1615 15.1406 14.8594C14.8385 14.5573 14.6875 14.1875 14.6875 13.75C14.6875 13.3125 14.8385 12.9427 15.1406 12.6406C15.4427 12.3385 15.8125 12.1875 16.25 12.1875C16.6875 12.1875 17.0573 12.3385 17.3594 12.6406C17.6615 12.9427 17.8125 13.3125 17.8125 13.75C17.8125 14.1875 17.6615 14.5573 17.3594 14.8594C17.0573 15.1615 16.6875 15.3125 16.25 15.3125Z" fill="#6C5A00"/>
</svg>
