<svg width="45" height="44" viewBox="0 0 45 44" fill="none" xmlns="http://www.w3.org/2000/svg">
<path d="M27.5 43.75V38.625C31.25 37.5417 34.2708 35.4583 36.5625 32.375C38.8542 29.2917 40 25.7917 40 21.875C40 17.9583 38.8542 14.4583 36.5625 11.375C34.2708 8.29167 31.25 6.20833 27.5 5.125V0C32.6667 1.16667 36.875 3.78125 40.125 7.84375C43.375 11.9062 45 16.5833 45 21.875C45 27.1667 43.375 31.8438 40.125 35.9062C36.875 39.9688 32.6667 42.5833 27.5 43.75V43.75M0 29.4375V14.4375H10L22.5 1.9375V41.9375L10 29.4375H0V29.4375M27.5 31.9375V11.8125C29.4583 12.7292 30.9896 14.1042 32.0938 15.9375C33.1979 17.7708 33.75 19.7708 33.75 21.9375C33.75 24.0625 33.1979 26.0312 32.0938 27.8438C30.9896 29.6562 29.4583 31.0208 27.5 31.9375V31.9375" fill="#5B4B00"/>
</svg>
