<svg width="36" height="35" viewBox="0 0 36 35" fill="none" xmlns="http://www.w3.org/2000/svg">
<path d="M22 35V30.9C25 30.0333 27.4167 28.3667 29.25 25.9C31.0833 23.4333 32 20.6333 32 17.5C32 14.3667 31.0833 11.5667 29.25 9.1C27.4167 6.63333 25 4.96667 22 4.1V0C26.1333 0.933333 29.5 3.025 32.1 6.275C34.7 9.525 36 13.2667 36 17.5C36 21.7333 34.7 25.475 32.1 28.725C29.5 31.975 26.1333 34.0667 22 35ZM0 23.55V11.55H8L18 1.55V33.55L8 23.55H0ZM22 25.55V9.45C23.5667 10.1833 24.7917 11.2833 25.675 12.75C26.5583 14.2167 27 15.8167 27 17.55C27 19.25 26.5583 20.825 25.675 22.275C24.7917 23.725 23.5667 24.8167 22 25.55ZM14 11.25L9.7 15.55H4V19.55H9.7L14 23.85V11.25Z" fill="#6C5A00"/>
</svg>
