<svg width="46" height="47" viewBox="0 0 46 47" fill="none" xmlns="http://www.w3.org/2000/svg">
<g filter="url(#filter0_dd_2_683)">
<path d="M15 32L23 25.9L31 32L28 22.1L36 16.4H26.2L23 6L19.8 16.4H10L18 22.1L15 32ZM23 40C20.2333 40 17.6333 39.475 15.2 38.425C12.7667 37.375 10.65 35.95 8.85 34.15C7.05 32.35 5.625 30.2333 4.575 27.8C3.525 25.3667 3 22.7667 3 20C3 17.2333 3.525 14.6333 4.575 12.2C5.625 9.76667 7.05 7.65 8.85 5.85C10.65 4.05 12.7667 2.625 15.2 1.575C17.6333 0.525 20.2333 0 23 0C25.7667 0 28.3667 0.525 30.8 1.575C33.2333 2.625 35.35 4.05 37.15 5.85C38.95 7.65 40.375 9.76667 41.425 12.2C42.475 14.6333 43 17.2333 43 20C43 22.7667 42.475 25.3667 41.425 27.8C40.375 30.2333 38.95 32.35 37.15 34.15C35.35 35.95 33.2333 37.375 30.8 38.425C28.3667 39.475 25.7667 40 23 40Z" fill="#FFD709"/>
</g>
<defs>
<filter id="filter0_dd_2_683" x="0" y="0" width="46" height="47" filterUnits="userSpaceOnUse" color-interpolation-filters="sRGB">
<feFlood flood-opacity="0" result="BackgroundImageFix"/>
<feColorMatrix in="SourceAlpha" type="matrix" values="0 0 0 0 0 0 0 0 0 0 0 0 0 0 0 0 0 0 127 0" result="hardAlpha"/>
<feOffset dy="4"/>
<feGaussianBlur stdDeviation="1.5"/>
<feComposite in2="hardAlpha" operator="out"/>
<feColorMatrix type="matrix" values="0 0 0 0 0 0 0 0 0 0 0 0 0 0 0 0 0 0 0.07 0"/>
<feBlend mode="normal" in2="BackgroundImageFix" result="effect1_dropShadow_2_683"/>
<feColorMatrix in="SourceAlpha" type="matrix" values="0 0 0 0 0 0 0 0 0 0 0 0 0 0 0 0 0 0 127 0" result="hardAlpha"/>
<feOffset dy="2"/>
<feGaussianBlur stdDeviation="1"/>
<feComposite in2="hardAlpha" operator="out"/>
<feColorMatrix type="matrix" values="0 0 0 0 0 0 0 0 0 0 0 0 0 0 0 0 0 0 0.06 0"/>
<feBlend mode="normal" in2="effect1_dropShadow_2_683" result="effect2_dropShadow_2_683"/>
<feBlend mode="normal" in="SourceGraphic" in2="effect2_dropShadow_2_683" result="shape"/>
</filter>
</defs>
</svg>
