<svg width="25" height="22" viewBox="0 0 25 22" fill="none" xmlns="http://www.w3.org/2000/svg">
<path d="M14.3 6.49V4.62C14.905 4.36333 15.5238 4.17083 16.1563 4.0425C16.7888 3.91417 17.4533 3.85 18.15 3.85C18.6267 3.85 19.0942 3.88667 19.5525 3.96C20.0108 4.03333 20.46 4.125 20.9 4.235V5.995C20.46 5.83 20.0154 5.70625 19.5663 5.62375C19.1171 5.54125 18.645 5.5 18.15 5.5C17.4533 5.5 16.7842 5.58708 16.1425 5.76125C15.5008 5.93542 14.8867 6.17833 14.3 6.49ZM14.3 12.54V10.67C14.905 10.4133 15.5238 10.2208 16.1563 10.0925C16.7888 9.96417 17.4533 9.9 18.15 9.9C18.6267 9.9 19.0942 9.93667 19.5525 10.01C20.0108 10.0833 20.46 10.175 20.9 10.285V12.045C20.46 11.88 20.0154 11.7563 19.5663 11.6738C19.1171 11.5913 18.645 11.55 18.15 11.55C17.4533 11.55 16.7842 11.6325 16.1425 11.7975C15.5008 11.9625 14.8867 12.21 14.3 12.54ZM14.3 9.515V7.645C14.905 7.38833 15.5238 7.19583 16.1563 7.0675C16.7888 6.93917 17.4533 6.875 18.15 6.875C18.6267 6.875 19.0942 6.91167 19.5525 6.985C20.0108 7.05833 20.46 7.15 20.9 7.26V9.02C20.46 8.855 20.0154 8.73125 19.5663 8.64875C19.1171 8.56625 18.645 8.525 18.15 8.525C17.4533 8.525 16.7842 8.61208 16.1425 8.78625C15.5008 8.96042 14.8867 9.20333 14.3 9.515ZM13.2 14.355C14.0067 13.97 14.8179 13.6813 15.6337 13.4888C16.4496 13.2962 17.2883 13.2 18.15 13.2C18.81 13.2 19.4563 13.255 20.0888 13.365C20.7213 13.475 21.3583 13.64 22 13.86V2.97C21.395 2.71333 20.7671 2.52083 20.1163 2.3925C19.4654 2.26417 18.81 2.2 18.15 2.2C17.2883 2.2 16.4358 2.31 15.5925 2.53C14.7492 2.75 13.9517 3.08 13.2 3.52V14.355ZM12.1 17.6C11.22 16.9033 10.2667 16.3625 9.24 15.9775C8.21333 15.5925 7.15 15.4 6.05 15.4C5.28 15.4 4.52375 15.5008 3.78125 15.7025C3.03875 15.9042 2.32833 16.1883 1.65 16.555C1.265 16.7567 0.89375 16.7475 0.53625 16.5275C0.17875 16.3075 0 15.9867 0 15.565V2.31C0 2.10833 0.0504167 1.91583 0.15125 1.7325C0.252083 1.54917 0.403333 1.41167 0.605 1.32C1.46667 0.898333 2.35125 0.572917 3.25875 0.34375C4.16625 0.114583 5.09667 0 6.05 0C7.11333 0 8.15375 0.1375 9.17125 0.4125C10.1888 0.6875 11.165 1.1 12.1 1.65C13.035 1.1 14.0113 0.6875 15.0288 0.4125C16.0463 0.1375 17.0867 0 18.15 0C19.1033 0 20.0338 0.114583 20.9413 0.34375C21.8488 0.572917 22.7333 0.898333 23.595 1.32C23.7967 1.41167 23.9479 1.54917 24.0487 1.7325C24.1496 1.91583 24.2 2.10833 24.2 2.31V15.565C24.2 15.9867 24.0213 16.3075 23.6638 16.5275C23.3063 16.7475 22.935 16.7567 22.55 16.555C21.8717 16.1883 21.1612 15.9042 20.4188 15.7025C19.6763 15.5008 18.92 15.4 18.15 15.4C17.05 15.4 15.9867 15.5925 14.96 15.9775C13.9333 16.3625 12.98 16.9033 12.1 17.6Z" fill="#6C5A00"/>
</svg>
