<svg width="46" height="35" viewBox="0 0 46 35" fill="none" xmlns="http://www.w3.org/2000/svg">
<path d="M26.5819 12.7259L26.404 9.33054C27.4781 8.80694 28.5832 8.39854 29.7194 8.10534C30.8556 7.81214 32.0562 7.6324 33.3211 7.56611C34.1866 7.52075 35.0389 7.54284 35.8781 7.63237C36.7173 7.72191 37.5416 7.84561 38.3509 8.00347L38.5184 11.1991C37.7038 10.9414 36.8848 10.759 36.0614 10.6519C35.238 10.5449 34.3769 10.5149 33.4781 10.562C32.2132 10.6283 31.0065 10.8501 29.858 11.2274C28.7095 11.6047 27.6175 12.1042 26.5819 12.7259ZM27.1576 23.7108L26.9797 20.3155C28.0538 19.7919 29.1589 19.3835 30.2951 19.0903C31.4313 18.7971 32.6319 18.6173 33.8968 18.551C34.7623 18.5057 35.6146 18.5278 36.4538 18.6173C37.293 18.7068 38.1173 18.8305 38.9266 18.9884L39.0941 22.184C38.2795 21.9263 37.4605 21.7439 36.6371 21.6369C35.8137 21.5298 34.9526 21.4998 34.0538 21.5469C32.7889 21.6132 31.5818 21.8267 30.4324 22.1873C29.283 22.548 28.1914 23.0558 27.1576 23.7108ZM26.8698 18.2183L26.6919 14.823C27.7659 14.2994 28.8711 13.891 30.0073 13.5978C31.1435 13.3046 32.3441 13.1249 33.609 13.0586C34.4745 13.0132 35.3268 13.0353 36.166 13.1248C37.0051 13.2144 37.8294 13.3381 38.6388 13.4959L38.8062 16.6915C37.9916 16.4338 37.1726 16.2514 36.3492 16.1444C35.5258 16.0373 34.6648 16.0074 33.766 16.0545C32.5011 16.1208 31.2944 16.3425 30.1459 16.7198C28.9974 17.0971 27.9053 17.5966 26.8698 18.2183ZM25.3331 27.111C26.7611 26.3352 28.2066 25.7337 29.6696 25.3065C31.1326 24.8794 32.6463 24.6248 34.2109 24.5428C35.4092 24.48 36.5878 24.5184 37.7467 24.6579C38.9056 24.7975 40.0781 25.0364 41.2641 25.3748L40.2278 5.60195C39.1049 5.19349 37.9465 4.90372 36.7526 4.73264C35.5586 4.56155 34.3625 4.50741 33.1641 4.57022C31.5996 4.65221 30.0622 4.93306 28.5519 5.41276C27.0416 5.89246 25.625 6.56752 24.3021 7.43795L25.3331 27.111ZM23.6446 33.1076C21.9805 31.9264 20.1981 31.0351 18.2973 30.4337C16.3966 29.8324 14.4476 29.5841 12.4503 29.6887C11.0523 29.762 9.68873 30.017 8.35977 30.4539C7.03081 30.8907 5.76796 31.4742 4.5712 32.2045C3.89135 32.6073 3.2164 32.626 2.54636 32.2606C1.87632 31.8952 1.52123 31.3296 1.48111 30.564L0.219811 6.49703C0.200621 6.13087 0.273845 5.77655 0.439482 5.43408C0.605118 5.0916 0.866658 4.82755 1.2241 4.64193C2.7485 3.79432 4.32366 3.11929 5.94959 2.61684C7.57553 2.11439 9.25397 1.8178 10.9849 1.72709C12.9156 1.62591 14.8178 1.77656 16.6914 2.17905C18.565 2.58155 20.3769 3.23762 22.1269 4.14728C23.7722 3.05968 25.5055 2.21781 27.3268 1.62168C29.1481 1.02554 31.0241 0.676879 32.9548 0.575696C34.6857 0.48498 36.386 0.604493 38.0555 0.934235C39.7251 1.26398 41.3622 1.77066 42.9668 2.45428C43.3417 2.60153 43.6294 2.8368 43.83 3.16008C44.0305 3.48336 44.1403 3.82808 44.1595 4.19425L45.4208 28.2612C45.461 29.0268 45.1669 29.6264 44.5388 30.0599C43.9106 30.4933 43.2374 30.5453 42.5191 30.2158C41.2526 29.6146 39.9357 29.1662 38.5683 28.8707C37.201 28.5752 35.8183 28.4641 34.4202 28.5373C32.4229 28.642 30.5106 29.0927 28.6831 29.8894C26.8556 30.6862 25.1761 31.7589 23.6446 33.1076Z" fill="#63003D"/>
</svg>
